<?xml version="1.0"?>
<svg version="1.1" xmlns="http://www.w3.org/2000/svg" width="347" height="37" style=""><path fill="#ffffff" d="M17.12,26.66q0-0.96,0.68-1.74q0.68-0.82,1.64-0.82l0.26,0l3.74,0l0-1.24l-3.74,0l-0.26,0q-1.02-0.2-1.67-0.88t-0.65-1.62q0-1.18,0.69-1.87t1.89-0.69l6.8,0l0-1.26l-6.8,0q-1.54,0-2.68,1.14q-1.14,1.1-1.14,2.68q0,1,0.38,1.82t1.12,1.18q-0.74,0.54-1.12,1.42t-0.38,1.88q0,1.56,1.14,2.66q1.16,1.16,2.68,1.16l6.8,0l0-1.32l-6.8,0q-1.2,0-1.89-0.68t-0.69-1.82z M29.0768,30.5l1.24,0l0-8.48q0-1.68,1.28-3q1.28-1.28,2.96-1.28t3,1.28q1.28,1.32,1.28,3l0,8.48l1.24,0l0-8.48q0-2.28-1.62-3.9t-3.9-1.62q-2.24,0-3.86,1.62t-1.62,3.9l0,8.48z M49.7736,17.7l3.86,0l0-1.26l-3.86,0q-2.88,0-4.88,2.04q-2.02,2.06-2.02,5.14q0,2.86,2.02,4.88t4.88,2.02l2.56,0l1.3,0l0-1.28l0-6.4l-1.3,0l-3.06,0l0,1.28l3.06,0l0,5.12l-2.56,0q-2.28,0-3.94-1.66t-1.66-3.96q0-2.5,1.66-4.22q1.64-1.7,3.94-1.7z M56.6704,30.52l1.26,0l0-14.06l-1.26,0l0,14.06z M61.0272,30.5l1.24,0l0-8.48q0-1.68,1.28-3q1.28-1.28,2.96-1.28t3,1.28q1.28,1.32,1.28,3l0,8.48l1.24,0l0-8.48q0-2.28-1.62-3.9t-3.9-1.62q-2.24,0-3.86,1.62t-1.62,3.9l0,8.48z M76.244,26.66q0-0.96,0.68-1.74q0.68-0.82,1.64-0.82l0.26,0l3.74,0l0-1.24l-3.74,0l-0.26,0q-1.02-0.2-1.67-0.88t-0.65-1.62q0-1.18,0.69-1.87t1.89-0.69l6.8,0l0-1.26l-6.8,0q-1.54,0-2.68,1.14q-1.14,1.1-1.14,2.68q0,1,0.38,1.82t1.12,1.18q-0.74,0.54-1.12,1.42t-0.38,1.88q0,1.56,1.14,2.66q1.16,1.16,2.68,1.16l6.8,0l0-1.32l-6.8,0q-1.2,0-1.89-0.68t-0.69-1.82z M89.3408,26.66q0-0.96,0.68-1.74q0.68-0.82,1.64-0.82l0.26,0l3.74,0l0-1.24l-3.74,0l-0.26,0q-1.02-0.2-1.67-0.88t-0.65-1.62q0-1.18,0.69-1.87t1.89-0.69l6.8,0l0-1.26l-6.8,0q-1.54,0-2.68,1.14q-1.14,1.1-1.14,2.68q0,1,0.38,1.82t1.12,1.18q-0.74,0.54-1.12,1.42t-0.38,1.88q0,1.56,1.14,2.66q1.16,1.16,2.68,1.16l6.8,0l0-1.32l-6.8,0q-1.2,0-1.89-0.68t-0.69-1.82z M107.3376,23.48l1.5,0q1.52,0,2.52-1t1-2.52q0-1.34-1-2.4q-1.06-1.1-2.52-1.1l-6.26,0l-1.24,0l0,14.04l1.24,0l0-7.02l3.26,0l4.26,7.02l1.5,0z M102.5776,22.24l0-4.52l6.26,0q0.92,0,1.62,0.66q0.66,0.66,0.66,1.58q0,0.96-0.66,1.62q-0.7,0.66-1.62,0.66l-6.26,0z M115.3544,30.52l1.26,0l0-14.06l-1.26,0l0,14.06z M119.7112,30.5l1.24,0l0-8.48q0-1.68,1.28-3q1.28-1.28,2.96-1.28t3,1.28q1.28,1.32,1.28,3l0,8.48l1.24,0l0-8.48q0-2.28-1.62-3.9t-3.9-1.62q-2.24,0-3.86,1.62t-1.62,3.9l0,8.48z M140.408,17.7l3.86,0l0-1.26l-3.86,0q-2.88,0-4.88,2.04q-2.02,2.06-2.02,5.14q0,2.86,2.02,4.88t4.88,2.02l2.56,0l1.3,0l0-1.28l0-6.4l-1.3,0l-3.06,0l0,1.28l3.06,0l0,5.12l-2.56,0q-2.28,0-3.94-1.66t-1.66-3.96q0-2.5,1.66-4.22q1.64-1.7,3.94-1.7z M174.7216,16.5l-1.26,0l0,8.5q0,1.68-1.28,2.96t-2.96,1.28t-2.96-1.28t-1.28-2.96l0-8.5l-1.26,0l0,8.5q0,1.68-1.28,2.96q-1.32,1.28-2.98,1.28q-1.68,0-2.96-1.28t-1.28-2.96l0-8.5l-1.26,0l0,8.5q0,2.22,1.64,3.86t3.86,1.64q1.52,0,2.86-0.84q1.32-0.82,1.9-2.14q0.72,1.28,2.12,2.14q1.36,0.84,2.88,0.84q2.24,0,3.88-1.64q1.62-1.62,1.62-3.86l0-8.5z M177.8984,30.52l1.26,0l0-14.06l-1.26,0l0,14.06z M192.5152,16.5l-10.84,0l0,1.22l4.92,0l0,12.82l1.24,0l0-12.82l4.68,0l0-1.22z M206.052,16.46l-1.26,0l0,6.4l-8.44,0l0-6.4l-1.26,0l0,14.04l1.26,0l0-6.38l8.44,0l0,6.38l1.26,0l0-14.04z"/><path fill="#dc133c" d="M216.8988,33.05l0-14.1l-2.25-0.9l0-2.55l6.9-0.15l2.85,0c6,0,9.54,3.54,9.54,10.29s-3.9,10.86-9.99,10.86l-9.3,0l0-2.55z M221.5488,32.9l2.49,0c2.91,0,4.86-1.71,4.86-7.11c0-5.04-1.71-6.84-4.65-6.84l-2.7,0l0,13.95z M248.8041,36.5l-0.54-1.95s-2.31,2.25-4.86,2.25c-2.91,0-4.68-1.71-4.68-4.71c0-3.54,2.67-4.95,7.23-4.95l2.1,0l0-1.65c0-1.53-0.81-2.19-2.31-2.19c-1.53,0-2.64,0.45-2.64,0.45l-0.45,1.89l-2.7,0l-0.21-4.44s3.63-1.2,6.51-1.2c4.56,0,6.3,1.59,6.3,5.94l0,7.41l2.25,0.54l0,2.4z M248.0541,29.69l-1.71,0c-2.34,0-3.27,0.6-3.27,1.95c0,1.14,0.63,1.8,1.77,1.8c1.59,0,3.21-1.74,3.21-1.74l0-2.01z M265.0494,20.3l0.21,2.07s2.85-2.31,5.52-2.31c2.91,0,4.56,2.07,4.56,5.34l0,7.95l2.1,0.75l0,2.4l-8.25,0l0-2.4l1.65-0.75l0-7.14c0-1.38-0.78-2.4-2.04-2.4c-1.86,0-3.21,1.71-3.21,1.71l0,7.83l1.65,0.75l0,2.4l-8.55,0l0-2.4l2.4-0.75l0-9.75l-2.4-0.75l0-2.4z"/></svg>
